<svg width="1872" height="564" viewBox="0 0 1872 564" fill="none" xmlns="http://www.w3.org/2000/svg">
<path fill-rule="evenodd" clip-rule="evenodd" d="M564 282.05C564 437.533 437.433 564 281.95 564C126.467 564 0 437.533 0 282.05C0 126.567 126.467 0 281.95 0C437.433 0 564 126.567 564 282.05ZM450.54 282.05C450.54 189.101 374.899 113.46 281.95 113.46C189.001 113.46 113.36 189.101 113.36 282.05C113.36 374.999 189.001 450.64 281.95 450.64C374.899 450.64 450.54 374.999 450.54 282.05Z" fill="url(#paint0_linear_1071_2)"/>
<path fill-rule="evenodd" clip-rule="evenodd" d="M548 282.05C548 428.157 430.278 547 285.451 547C140.722 547 23 428.157 23 282.05C23 135.943 140.722 17 285.451 17C430.278 17 548 135.943 548 282.05ZM468.464 282.05C468.464 180.184 386.355 97.2939 285.451 97.2939C184.546 97.2939 102.438 180.184 102.438 282.05C102.438 383.915 184.546 466.806 285.451 466.806C386.355 466.806 468.464 383.915 468.464 282.05Z" fill="url(#paint1_linear_1071_2)"/>
<path d="M519 282.05C519 413.433 414.448 520 285.451 520C156.552 520 52 413.433 52 282.05C52 150.567 156.552 44 285.451 44C414.448 44 519 150.567 519 282.05Z" fill="url(#paint2_radial_1071_2)"/>
<path d="M636 452.517V435.008L645.534 433.618L686.695 317.634H717.588L758.657 433.618L768.099 435.008V452.517H720.613V435.008L729.597 433.34L724.555 416.665H679.544L674.686 433.34L683.669 435.008V452.517H636ZM686.145 395.358H717.955L703.654 351.633L702.278 347.279H701.729L700.262 352.004L686.145 395.358ZM823.194 454.462C813.538 454.462 805.196 452.3 798.168 447.978C791.2 443.592 785.822 437.601 782.033 430.006C778.305 422.348 776.441 413.608 776.441 403.789V401.287C776.441 391.344 778.366 382.544 782.217 374.885C786.067 367.227 791.475 361.237 798.443 356.914C805.41 352.59 813.599 350.429 823.011 350.429C832.177 350.429 840.062 351.849 846.662 354.69C853.262 357.531 858.549 360.681 862.522 364.139L862.155 394.247H840.153L836.486 376.182C835.264 374.947 833.645 373.928 831.627 373.126C829.611 372.322 827.717 371.921 825.944 371.921C821.177 371.921 817.297 373.063 814.301 375.348C811.368 377.572 809.198 380.846 807.793 385.168C806.449 389.491 805.776 394.864 805.776 401.287V403.789C805.776 410.52 806.601 415.955 808.251 420.093C809.902 424.169 812.071 427.165 814.76 429.079C817.51 430.932 820.413 431.859 823.469 431.859C827.808 431.859 831.2 430.747 833.645 428.523C836.15 426.238 837.953 422.996 839.054 418.796H863.896L864.263 419.352C862.98 426.887 860.779 433.279 857.663 438.528C854.607 443.716 850.298 447.668 844.737 450.386C839.176 453.103 831.994 454.462 823.194 454.462ZM921.833 454.462C912.177 454.462 903.835 452.3 896.806 447.978C889.839 443.592 884.461 437.601 880.673 430.006C876.944 422.348 875.08 413.608 875.08 403.789V401.287C875.08 391.344 877.005 382.544 880.856 374.885C884.705 367.227 890.114 361.237 897.081 356.914C904.049 352.59 912.238 350.429 921.65 350.429C930.817 350.429 938.701 351.849 945.301 354.69C951.901 357.531 957.188 360.681 961.16 364.139L960.793 394.247H938.793L935.125 376.182C933.903 374.947 932.283 373.928 930.267 373.126C928.25 372.322 926.355 371.921 924.583 371.921C919.816 371.921 915.936 373.063 912.941 375.348C910.008 377.572 907.837 380.846 906.432 385.168C905.088 389.491 904.415 394.864 904.415 401.287V403.789C904.415 410.52 905.24 415.955 906.89 420.093C908.54 424.169 910.71 427.165 913.399 429.079C916.149 430.932 919.052 431.859 922.108 431.859C926.447 431.859 929.839 430.747 932.283 428.523C934.789 426.238 936.592 422.996 937.692 418.796H962.536L962.902 419.352C961.618 426.887 959.418 433.279 956.302 438.528C953.246 443.716 948.937 447.668 943.375 450.386C937.814 453.103 930.633 454.462 921.833 454.462ZM1022.03 454.462C1012.43 454.462 1004.06 452.362 996.914 448.163C989.761 443.901 984.204 438.096 980.224 430.747C976.317 423.335 974.361 414.936 974.361 405.549V401.936C974.361 391.931 976.164 383.068 979.773 375.348C983.378 367.567 988.569 361.483 995.356 357.099C1002.13 352.653 1010.26 350.429 1019.73 350.429C1028.72 350.429 1036.3 352.189 1042.47 355.709C1048.65 359.229 1053.32 364.386 1056.49 371.18C1059.73 377.911 1061.36 386.126 1061.36 395.821V411.57H1004.8L1004.71 412.126C1005.07 415.955 1006.11 419.352 1007.82 422.316C1009.6 425.219 1012.01 427.535 1015.06 429.264C1018.18 430.993 1021.97 431.859 1026.43 431.859C1031.02 431.859 1035.35 431.303 1039.45 430.191C1043.61 429.079 1047.79 427.35 1052.01 425.003L1059.34 443.067C1055.06 446.341 1049.75 449.058 1043.39 451.22C1037.09 453.381 1029.98 454.462 1022.03 454.462ZM1004.88 392.579H1034.22V390.17C1034.22 386.342 1033.77 383.099 1032.85 380.443C1031.99 377.726 1030.52 375.658 1028.45 374.236C1026.43 372.816 1023.74 372.106 1020.38 372.106C1016.96 372.106 1014.15 372.971 1011.94 374.7C1009.75 376.43 1008.07 378.807 1006.9 381.833C1005.8 384.859 1005.04 388.287 1004.61 392.116L1004.88 392.579ZM1116.45 454.462C1108.88 454.462 1101.79 453.752 1095.19 452.332C1088.65 450.911 1082.56 448.903 1076.94 446.31L1076.57 416.572H1096.65L1100.31 431.025C1102.03 431.951 1104.01 432.723 1106.28 433.34C1108.54 433.958 1111.17 434.267 1114.16 434.267C1119.78 434.267 1123.7 433.402 1125.89 431.673C1128.09 429.943 1129.2 427.813 1129.2 425.281C1129.2 422.811 1127.97 420.587 1125.53 418.611C1123.09 416.634 1118.1 414.936 1110.58 413.516C1098.92 411.107 1090.3 407.248 1084.73 401.936C1079.23 396.563 1076.48 389.769 1076.48 381.555C1076.48 375.997 1077.83 370.902 1080.52 366.27C1083.2 361.576 1087.43 357.809 1093.17 354.968C1098.97 352.065 1106.52 350.614 1115.81 350.614C1123.27 350.614 1130.23 351.324 1136.71 352.745C1143.19 354.104 1148.56 355.864 1152.85 358.025L1152.94 386.743H1132.95L1130.11 373.774C1128.58 372.662 1126.81 371.828 1124.8 371.272C1122.78 370.654 1120.52 370.346 1118.01 370.346C1113.61 370.346 1110.28 371.21 1108.02 372.94C1105.82 374.669 1104.72 376.861 1104.72 379.517C1104.72 381.061 1105.15 382.575 1106 384.057C1106.92 385.477 1108.63 386.836 1111.14 388.133C1113.64 389.368 1117.34 390.541 1122.22 391.653C1134.08 394.308 1142.82 397.952 1148.44 402.584C1154.13 407.216 1156.98 413.948 1156.98 422.779C1156.98 432.352 1153.55 440.041 1146.71 445.847C1139.86 451.59 1129.77 454.462 1116.45 454.462ZM1211.61 454.462C1204.03 454.462 1196.94 453.752 1190.34 452.332C1183.8 450.911 1177.72 448.903 1172.1 446.31L1171.73 416.572H1191.8L1195.47 431.025C1197.18 431.951 1199.17 432.723 1201.43 433.34C1203.7 433.958 1206.32 434.267 1209.32 434.267C1214.94 434.267 1218.85 433.402 1221.05 431.673C1223.25 429.943 1224.35 427.813 1224.35 425.281C1224.35 422.811 1223.13 420.587 1220.69 418.611C1218.24 416.634 1213.26 414.936 1205.74 413.516C1194.06 411.107 1185.45 407.248 1179.89 401.936C1174.39 396.563 1171.64 389.769 1171.64 381.555C1171.64 375.997 1172.98 370.902 1175.67 366.27C1178.36 361.576 1182.57 357.809 1188.32 354.968C1194.13 352.065 1201.68 350.614 1210.96 350.614C1218.42 350.614 1225.39 351.324 1231.87 352.745C1238.34 354.104 1243.72 355.864 1248 358.025L1248.1 386.743H1228.11L1225.27 373.774C1223.74 372.662 1221.96 371.828 1219.95 371.272C1217.94 370.654 1215.67 370.346 1213.17 370.346C1208.76 370.346 1205.43 371.21 1203.17 372.94C1200.97 374.669 1199.87 376.861 1199.87 379.517C1199.87 381.061 1200.3 382.575 1201.16 384.057C1202.07 385.477 1203.79 386.836 1206.29 388.133C1208.79 389.368 1212.49 390.541 1217.38 391.653C1229.24 394.308 1237.98 397.952 1243.6 402.584C1249.29 407.216 1252.12 413.948 1252.12 422.779C1252.12 432.352 1248.71 440.041 1241.86 445.847C1235.01 451.59 1224.93 454.462 1211.61 454.462ZM1262.67 452.517V435.008L1274.95 432.136V372.755L1260.93 369.883V352.282H1304.29V432.136L1316.57 435.008V452.517H1262.67ZM1274.03 332.179V308H1304.29V332.179H1274.03ZM1384.14 454.462C1378.08 454.462 1372.95 453.258 1368.73 450.849C1364.52 448.44 1360.97 444.951 1358.1 440.381L1356.08 452.517H1330.78V328.473L1316.75 325.602V308H1360.02V362.565C1362.77 358.673 1366.2 355.679 1370.29 353.578C1374.38 351.479 1379.12 350.429 1384.5 350.429C1392.44 350.429 1399.17 352.59 1404.67 356.914C1410.23 361.175 1414.45 367.258 1417.32 375.163C1420.25 383.006 1421.72 392.271 1421.72 402.955V404.901C1421.72 414.906 1420.25 423.644 1417.32 431.117C1414.45 438.528 1410.2 444.272 1404.58 448.347C1399.01 452.424 1392.2 454.462 1384.14 454.462ZM1374.96 431.581C1381.32 431.581 1385.82 429.326 1388.44 424.818C1391.13 420.247 1392.47 413.608 1392.47 404.901V402.955C1392.47 396.717 1391.86 391.406 1390.64 387.021C1389.48 382.637 1387.65 379.27 1385.14 376.923C1382.63 374.514 1379.37 373.311 1375.33 373.311C1371.79 373.311 1368.7 374.175 1366.08 375.904C1363.5 377.572 1361.49 379.826 1360.02 382.667V423.799C1361.74 426.393 1363.84 428.338 1366.35 429.635C1368.85 430.932 1371.73 431.581 1374.96 431.581ZM1430.61 452.517V435.008L1442.9 432.136V372.755L1428.87 369.883V352.282H1472.24V432.136L1484.51 435.008V452.517H1430.61ZM1441.98 332.179V308H1472.24V332.179H1441.98ZM1490.75 452.517V435.008L1503.13 432.136V328.473L1488.92 325.602V308H1532.46V432.136L1544.74 435.008V452.517H1490.75ZM1551.43 452.517V435.008L1563.72 432.136V372.755L1549.69 369.883V352.282H1593.06V432.136L1605.34 435.008V452.517H1551.43ZM1562.8 332.179V308H1593.06V332.179H1562.8ZM1653.37 454.554C1643.6 454.554 1636.11 451.899 1630.92 446.588C1625.72 441.215 1623.12 432.723 1623.12 421.113V372.94H1610.1V352.282H1623.12V327.639H1652.27V352.282H1669.6V372.94H1652.27V421.02C1652.27 424.602 1653.04 427.165 1654.56 428.708C1656.16 430.191 1658.29 430.932 1660.98 430.932C1662.33 430.932 1663.71 430.839 1665.1 430.654C1666.51 430.469 1667.8 430.283 1668.96 430.098L1671.16 451.868C1668.41 452.671 1665.51 453.319 1662.45 453.813C1659.45 454.308 1656.43 454.554 1653.37 454.554ZM1709.84 493C1707.34 493 1704.71 492.784 1701.96 492.351C1699.27 491.919 1696.62 491.332 1693.99 490.591L1697.38 469.099C1698.6 469.346 1699.82 469.531 1701.05 469.654C1702.32 469.84 1703.55 469.932 1704.71 469.932C1708.56 469.932 1711.92 469.037 1714.79 467.246C1717.73 465.517 1719.75 462.923 1720.85 459.464L1722.4 454.554L1689.86 371.736L1677.12 369.883V352.282H1733.04V369.883L1720.85 371.736L1735.33 414.257L1736.43 417.499H1736.98L1754.12 371.55L1742.48 369.883V352.282H1794V369.883L1782.54 371.55L1745.05 467.339C1743.27 471.909 1740.92 476.139 1737.99 480.03C1735.06 483.921 1731.29 487.04 1726.71 489.387C1722.19 491.795 1716.57 493 1709.84 493Z" fill="#9B2318"/>
<path d="M282.929 176.813C274.839 176.813 266.93 174.413 260.203 169.919C253.476 165.424 248.233 159.035 245.137 151.56C242.041 144.086 241.231 135.861 242.809 127.926C244.387 119.991 248.283 112.702 254.004 106.981C259.725 101.26 267.014 97.3644 274.949 95.786C282.884 94.2076 291.109 95.0177 298.583 98.1138C306.058 101.21 312.447 106.453 316.941 113.18C321.436 119.907 323.835 127.816 323.835 135.906C323.824 146.752 319.51 157.15 311.841 164.819C304.173 172.487 293.775 176.801 282.929 176.813Z" fill="#FEFEFE"/>
<path d="M411.493 177.397L411.164 177.484L410.857 177.579C410.127 177.784 409.396 178.003 408.666 178.23C395.072 182.218 329.096 200.816 282.616 200.816C239.423 200.816 179.415 184.745 160.219 179.289C158.308 178.55 156.357 177.921 154.375 177.404C140.496 173.752 131 187.85 131 200.735C131 213.497 142.468 219.574 154.046 223.935V224.14L223.602 245.864C230.709 248.588 232.608 251.371 233.536 253.782C236.553 261.518 234.142 276.836 233.288 282.183L229.051 315.054L205.537 443.755C205.464 444.106 205.398 444.463 205.34 444.829L205.172 445.756C203.477 457.553 212.14 469 228.547 469C242.864 469 249.183 459.117 251.922 445.669C251.922 445.669 272.375 330.569 282.601 330.569C292.828 330.569 313.895 445.669 313.895 445.669C316.634 459.117 322.953 469 337.27 469C353.72 469 362.383 457.502 360.645 445.669C360.491 444.661 360.309 443.667 360.09 442.703L336.254 315.068L332.025 282.197C328.964 263.052 331.426 256.726 332.259 255.243C332.281 255.208 332.301 255.171 332.317 255.133C333.106 253.672 336.7 250.4 345.086 247.252L410.302 224.454C410.703 224.347 411.098 224.22 411.485 224.074C423.173 219.691 434.86 213.628 434.86 200.75C434.86 187.872 425.372 173.752 411.493 177.397Z" fill="#FEFEFE"/>
<path d="M639.003 267V254.183L646.62 253.084L680.531 160.359H702.431L736.122 253.084L743.739 254.183V267H707.411V254.183L714.809 252.864L710.121 238.216H672.621L667.934 252.864L675.331 254.183V267H639.003ZM677.675 222.469H705.067L692.616 185.921L691.591 182.698H691.151L690.053 186.141L677.675 222.469ZM752.968 267V254.183L763.222 251.985V202.84L751.869 200.643V187.752H783.144L783.949 197.566L784.096 199.324C786.049 195.027 788.466 191.78 791.347 189.583C794.228 187.386 797.67 186.287 801.674 186.287C802.943 186.287 804.335 186.409 805.849 186.653C807.362 186.849 808.705 187.117 809.877 187.459L807.606 207.161L796.986 206.575C793.959 206.429 791.493 206.941 789.589 208.113C787.733 209.285 786.073 210.97 784.608 213.167V251.985L794.862 254.183V267H752.968ZM862.685 268.538C857.753 268.538 853.554 267.586 850.087 265.682C846.62 263.729 843.715 260.921 841.371 257.259L839.833 267H821.376V167.83L810.023 165.633V152.742H842.689V196.175C844.984 193.001 847.792 190.56 851.112 188.851C854.481 187.142 858.388 186.287 862.831 186.287C869.228 186.287 874.647 188.021 879.091 191.487C883.583 194.905 887.001 199.739 889.345 205.989C891.688 212.239 892.86 219.588 892.86 228.035V229.573C892.86 237.435 891.688 244.295 889.345 250.154C887.001 255.965 883.583 260.481 879.091 263.704C874.599 266.927 869.13 268.538 862.685 268.538ZM856.166 251.912C861.635 251.912 865.565 249.983 867.958 246.126C870.351 242.22 871.547 236.702 871.547 229.573V228.035C871.547 222.859 871.01 218.416 869.936 214.705C868.91 210.945 867.274 208.04 865.028 205.989C862.831 203.938 859.95 202.913 856.386 202.913C853.163 202.913 850.404 203.67 848.109 205.184C845.814 206.697 844.008 208.748 842.689 211.336V244.441C844.154 246.883 846.01 248.738 848.256 250.008C850.551 251.277 853.188 251.912 856.166 251.912ZM900.697 267V254.183L911.024 251.985V202.84L899.599 200.643V187.752H932.411V251.985L942.665 254.183V267H900.697ZM910.292 170.979V152.742H932.411V170.979H910.292ZM986.098 267V254.183L997.597 251.766V175.74L986.098 173.25V160.359H997.597H1032.9C1042.42 160.359 1050.82 162.605 1058.09 167.098C1065.37 171.541 1071.03 177.718 1075.09 185.628C1079.19 193.489 1081.24 202.522 1081.24 212.728V214.705C1081.24 224.812 1079.21 233.821 1075.16 241.731C1071.16 249.593 1065.54 255.77 1058.31 260.262C1051.09 264.754 1042.71 267 1033.19 267H986.098ZM1018.98 250.667H1032.09C1038 250.667 1043.01 249.129 1047.11 246.053C1051.21 242.928 1054.33 238.655 1056.48 233.235C1058.68 227.815 1059.78 221.639 1059.78 214.705V212.654C1059.78 205.623 1058.68 199.422 1056.48 194.051C1054.33 188.631 1051.21 184.407 1047.11 181.38C1043.01 178.304 1038 176.766 1032.09 176.766H1018.98V250.667ZM1090.39 267V254.183L1100.72 251.985V202.84L1089.3 200.643V187.752H1122.11V251.985L1132.36 254.183V267H1090.39ZM1099.99 170.979V152.742H1122.11V170.979H1099.99ZM1174.48 299.007C1170.47 299.007 1165.98 298.494 1161 297.469C1156.02 296.443 1151.62 294.979 1147.82 293.074L1151.77 277.84C1155.19 279.305 1158.8 280.452 1162.61 281.282C1166.47 282.161 1170.06 282.601 1173.38 282.601C1179.09 282.601 1183.27 281.014 1185.9 277.84C1188.59 274.666 1189.93 270.247 1189.93 264.583V259.383C1187.59 262.361 1184.83 264.632 1181.65 266.194C1178.48 267.757 1174.84 268.538 1170.74 268.538C1164.3 268.538 1158.75 266.927 1154.12 263.704C1149.48 260.433 1145.94 255.867 1143.5 250.008C1141.05 244.148 1139.83 237.337 1139.83 229.573V228.035C1139.83 219.686 1141.05 212.386 1143.5 206.136C1145.94 199.886 1149.43 195.027 1153.97 191.561C1158.51 188.045 1163.95 186.287 1170.3 186.287C1175.04 186.287 1179.12 187.288 1182.53 189.29C1185.95 191.243 1188.86 194.051 1191.25 197.713L1192.79 187.752H1211.39V264.656C1211.39 271.639 1209.9 277.693 1206.92 282.82C1203.99 287.947 1199.77 291.927 1194.25 294.759C1188.73 297.591 1182.14 299.007 1174.48 299.007ZM1176.75 251.912C1179.77 251.912 1182.39 251.326 1184.58 250.154C1186.78 248.934 1188.56 247.176 1189.93 244.881V210.457C1188.56 208.064 1186.76 206.209 1184.51 204.891C1182.31 203.572 1179.75 202.913 1176.82 202.913C1173.16 202.913 1170.18 203.987 1167.88 206.136C1165.59 208.235 1163.91 211.165 1162.83 214.925C1161.76 218.636 1161.22 223.006 1161.22 228.035V229.573C1161.22 236.507 1162.42 241.976 1164.81 245.979C1167.2 249.935 1171.18 251.912 1176.75 251.912ZM1208.68 203.206L1199.38 187.752H1220.69V200.643L1208.68 203.206ZM1226.62 267V254.183L1236.95 251.985V202.84L1225.53 200.643V187.752H1258.34V251.985L1268.59 254.183V267H1226.62ZM1236.22 170.979V152.742H1258.34V170.979H1236.22ZM1306.9 268.538C1299.53 268.538 1293.84 266.512 1289.83 262.459C1285.88 258.406 1283.9 251.985 1283.9 243.196V202.767H1272.99V187.752H1283.9V168.343H1305.21V187.752H1319.79V202.767H1305.21V243.123C1305.21 246.199 1305.85 248.396 1307.12 249.715C1308.44 251.033 1310.22 251.692 1312.46 251.692C1313.69 251.692 1314.96 251.619 1316.27 251.473C1317.64 251.277 1318.81 251.082 1319.79 250.887L1321.62 266.341C1319.42 266.976 1317.03 267.488 1314.44 267.879C1311.9 268.318 1309.39 268.538 1306.9 268.538ZM1356.19 268.538C1348.33 268.538 1342.08 266.438 1337.44 262.239C1332.8 257.991 1330.48 252.229 1330.48 244.954C1330.48 237.483 1333.51 231.429 1339.56 226.79C1345.62 222.103 1354.48 219.759 1366.15 219.759H1376.62V213.899C1376.62 210.091 1375.5 207.015 1373.26 204.671C1371.06 202.278 1367.74 201.082 1363.29 201.082C1361 201.082 1358.95 201.375 1357.14 201.961C1355.34 202.498 1353.68 203.279 1352.16 204.305L1350.48 214.778H1335.1L1334.8 194.197C1338.95 191.854 1343.45 189.949 1348.28 188.484C1353.11 187.02 1358.51 186.287 1364.47 186.287C1374.82 186.287 1383 188.704 1389 193.538C1395.01 198.323 1398.01 205.184 1398.01 214.119V246.785C1398.01 247.859 1398.01 248.934 1398.01 250.008C1398.06 251.033 1398.16 252.034 1398.3 253.011L1406.58 254.183V267H1380.07C1379.53 265.633 1378.99 264.168 1378.46 262.605C1377.92 261.043 1377.53 259.48 1377.28 257.918C1374.75 261.141 1371.74 263.729 1368.28 265.682C1364.86 267.586 1360.83 268.538 1356.19 268.538ZM1361.9 252.718C1364.88 252.718 1367.71 252.059 1370.4 250.74C1373.08 249.373 1375.16 247.591 1376.62 245.394V232.869H1366.08C1361.39 232.869 1357.83 233.943 1355.38 236.092C1352.99 238.24 1351.8 240.828 1351.8 243.855C1351.8 246.688 1352.67 248.885 1354.43 250.447C1356.24 251.961 1358.73 252.718 1361.9 252.718ZM1413.03 267V254.183L1423.35 251.985V167.83L1411.93 165.633V152.742H1444.74V251.985L1455.07 254.183V267H1413.03Z" fill="#24446B"/>
<defs>
<linearGradient id="paint0_linear_1071_2" x1="-0.0120064" y1="0.025011" x2="563.987" y2="0.025011" gradientUnits="userSpaceOnUse">
<stop stop-color="#57585A"/>
<stop offset="0.188" stop-color="#BBBDBF"/>
<stop offset="0.461" stop-color="#FEFEFE"/>
<stop offset="0.691" stop-color="#808284"/>
<stop offset="1" stop-color="#403F40"/>
</linearGradient>
<linearGradient id="paint1_linear_1071_2" x1="22.9683" y1="547.032" x2="22.9683" y2="17.013" gradientUnits="userSpaceOnUse">
<stop stop-color="#57585A"/>
<stop offset="0.188" stop-color="#BBBDBF"/>
<stop offset="0.364" stop-color="#F2F2F3"/>
<stop offset="0.691" stop-color="#808284"/>
<stop offset="1" stop-color="#403F40"/>
</linearGradient>
<radialGradient id="paint2_radial_1071_2" cx="0" cy="0" r="1" gradientUnits="userSpaceOnUse" gradientTransform="translate(285.485 282.025) scale(265.036 270.143)">
<stop stop-color="#0973B7"/>
<stop offset="0.848" stop-color="#293A5B"/>
</radialGradient>
</defs>
</svg>
