<svg width="1297" height="239" viewBox="0 0 1297 239" fill="none" xmlns="http://www.w3.org/2000/svg">
<path d="M262.02 170V158.892L268.621 157.939L298.011 77.5781H316.991L346.19 157.939L352.791 158.892V170H321.307V158.892L327.718 157.749L323.656 145.054H291.156L287.093 157.749L293.504 158.892V170H262.02ZM295.536 131.406H319.276L308.485 99.7314L307.596 96.9385H307.215L306.263 99.9219L295.536 131.406ZM360.789 170V158.892L369.676 156.987V114.395L359.837 112.49V101.318H386.942L387.64 109.824L387.767 111.348C389.46 107.624 391.554 104.81 394.051 102.905C396.548 101.001 399.531 100.049 403.001 100.049C404.102 100.049 405.308 100.155 406.62 100.366C407.931 100.535 409.095 100.768 410.111 101.064L408.143 118.14L398.939 117.632C396.315 117.505 394.178 117.949 392.528 118.965C390.92 119.98 389.481 121.44 388.211 123.345V156.987L397.098 158.892V170H360.789ZM455.877 171.333C451.603 171.333 447.964 170.508 444.959 168.857C441.955 167.165 439.437 164.731 437.406 161.558L436.073 170H420.077V84.0527L410.238 82.1484V70.9766H438.548V108.618C440.537 105.868 442.97 103.752 445.848 102.271C448.768 100.789 452.153 100.049 456.004 100.049C461.548 100.049 466.245 101.551 470.096 104.556C473.989 107.518 476.952 111.707 478.983 117.124C481.014 122.541 482.03 128.91 482.03 136.23V137.563C482.03 144.377 481.014 150.322 478.983 155.4C476.952 160.436 473.989 164.351 470.096 167.144C466.203 169.937 461.463 171.333 455.877 171.333ZM450.228 156.924C454.967 156.924 458.374 155.252 460.448 151.909C462.521 148.524 463.558 143.742 463.558 137.563V136.23C463.558 131.745 463.092 127.894 462.161 124.678C461.273 121.419 459.855 118.901 457.909 117.124C456.004 115.347 453.508 114.458 450.418 114.458C447.625 114.458 445.234 115.114 443.245 116.426C441.257 117.738 439.691 119.515 438.548 121.758V150.449C439.818 152.565 441.426 154.173 443.372 155.273C445.361 156.374 447.647 156.924 450.228 156.924ZM488.822 170V158.892L497.772 156.987V114.395L487.87 112.49V101.318H516.307V156.987L525.194 158.892V170H488.822ZM497.137 86.7822V70.9766H516.307V86.7822H497.137ZM562.835 170V158.892L572.801 156.797V90.9082L562.835 88.75V77.5781H572.801H603.397C611.649 77.5781 618.927 79.5247 625.233 83.418C631.538 87.2689 636.447 92.6221 639.959 99.4775C643.514 106.291 645.291 114.119 645.291 122.964V124.678C645.291 133.438 643.535 141.245 640.023 148.101C636.553 154.914 631.686 160.267 625.423 164.16C619.16 168.053 611.903 170 603.651 170H562.835ZM591.336 155.845H602.699C607.819 155.845 612.157 154.512 615.711 151.846C619.266 149.137 621.974 145.435 623.836 140.737C625.741 136.04 626.693 130.687 626.693 124.678V122.9C626.693 116.807 625.741 111.432 623.836 106.777C621.974 102.08 619.266 98.4196 615.711 95.7959C612.157 93.1299 607.819 91.7969 602.699 91.7969H591.336V155.845ZM653.226 170V158.892L662.176 156.987V114.395L652.274 112.49V101.318H680.711V156.987L689.598 158.892V170H653.226ZM661.541 86.7822V70.9766H680.711V86.7822H661.541ZM726.097 197.739C722.627 197.739 718.734 197.295 714.417 196.406C710.101 195.518 706.292 194.248 702.992 192.598L706.419 179.395C709.382 180.664 712.513 181.659 715.814 182.378C719.157 183.14 722.267 183.521 725.145 183.521C730.096 183.521 733.714 182.145 735.999 179.395C738.327 176.644 739.491 172.814 739.491 167.905V163.398C737.459 165.98 735.068 167.948 732.318 169.302C729.567 170.656 726.414 171.333 722.86 171.333C717.274 171.333 712.471 169.937 708.451 167.144C704.43 164.308 701.362 160.352 699.246 155.273C697.131 150.195 696.073 144.292 696.073 137.563V136.23C696.073 128.994 697.131 122.668 699.246 117.251C701.362 111.834 704.388 107.624 708.324 104.619C712.259 101.572 716.978 100.049 722.479 100.049C726.584 100.049 730.117 100.916 733.079 102.651C736.042 104.344 738.56 106.777 740.633 109.951L741.966 101.318H758.089V167.969C758.089 174.02 756.799 179.268 754.217 183.711C751.678 188.154 748.018 191.603 743.236 194.058C738.454 196.512 732.741 197.739 726.097 197.739ZM728.065 156.924C730.689 156.924 732.953 156.416 734.857 155.4C736.761 154.342 738.306 152.819 739.491 150.83V120.996C738.306 118.923 736.74 117.314 734.793 116.172C732.889 115.029 730.667 114.458 728.128 114.458C724.954 114.458 722.373 115.389 720.384 117.251C718.395 119.071 716.935 121.61 716.004 124.868C715.073 128.084 714.608 131.872 714.608 136.23V137.563C714.608 143.573 715.645 148.312 717.718 151.782C719.792 155.21 723.241 156.924 728.065 156.924ZM755.741 114.712L747.679 101.318H766.151V112.49L755.741 114.712ZM771.292 170V158.892L780.243 156.987V114.395L770.34 112.49V101.318H798.778V156.987L807.664 158.892V170H771.292ZM779.608 86.7822V70.9766H798.778V86.7822H779.608ZM840.863 171.333C834.473 171.333 829.543 169.577 826.073 166.064C822.645 162.552 820.931 156.987 820.931 149.37V114.331H811.473V101.318H820.931V84.4971H839.403V101.318H852.035V114.331H839.403V149.307C839.403 151.973 839.953 153.877 841.053 155.02C842.196 156.162 843.74 156.733 845.687 156.733C846.745 156.733 847.845 156.67 848.988 156.543C850.173 156.374 851.188 156.204 852.035 156.035L853.621 169.429C851.717 169.979 849.644 170.423 847.401 170.762C845.2 171.143 843.021 171.333 840.863 171.333ZM883.582 171.333C876.769 171.333 871.353 169.513 867.332 165.874C863.312 162.192 861.302 157.199 861.302 150.894C861.302 144.419 863.926 139.172 869.173 135.151C874.421 131.089 882.101 129.058 892.215 129.058H901.292V123.979C901.292 120.679 900.319 118.013 898.372 115.981C896.468 113.908 893.591 112.871 889.74 112.871C887.751 112.871 885.973 113.125 884.408 113.633C882.842 114.098 881.403 114.775 880.091 115.664L878.631 124.741H865.301L865.047 106.904C868.644 104.873 872.537 103.223 876.727 101.953C880.916 100.684 885.592 100.049 890.755 100.049C899.727 100.049 906.815 102.144 912.02 106.333C917.225 110.48 919.828 116.426 919.828 124.17V152.48C919.828 153.411 919.828 154.342 919.828 155.273C919.87 156.162 919.954 157.03 920.081 157.876L927.254 158.892V170H904.276C903.81 168.815 903.345 167.546 902.879 166.191C902.414 164.837 902.075 163.483 901.864 162.129C899.663 164.922 897.061 167.165 894.056 168.857C891.094 170.508 887.603 171.333 883.582 171.333ZM888.534 157.622C891.115 157.622 893.569 157.051 895.897 155.908C898.224 154.723 900.023 153.179 901.292 151.274V140.42H892.152C888.089 140.42 885 141.351 882.884 143.213C880.811 145.075 879.774 147.318 879.774 149.941C879.774 152.396 880.536 154.3 882.059 155.654C883.625 156.966 885.783 157.622 888.534 157.622ZM932.84 170V158.892L941.79 156.987V84.0527L931.888 82.1484V70.9766H960.326V156.987L969.276 158.892V170H932.84Z" fill="black"/>
<path d="M1005.84 170V158.892L1012.44 157.939L1041.83 77.5781H1060.81L1090.01 157.939L1096.61 158.892V170H1065.13V158.892L1071.54 157.749L1067.47 145.054H1034.97L1030.91 157.749L1037.32 158.892V170H1005.84ZM1039.35 131.406H1063.09L1052.3 99.7314L1051.41 96.9385H1051.03L1050.08 99.9219L1039.35 131.406ZM1103.34 170V158.892L1118.95 156.987V94.3994H1103.15V83.7988L1137.43 77.5781V156.987L1153.04 158.892V170H1103.34ZM1160.85 170V158.892L1176.46 156.987V94.3994H1160.66V83.7988L1194.93 77.5781V156.987L1210.55 158.892V170H1160.85ZM1237.27 197.739C1235.67 197.739 1233.95 197.591 1232.13 197.295C1230.35 197.041 1228.66 196.681 1227.05 196.216L1229.15 182.632C1229.95 182.801 1230.84 182.928 1231.81 183.013C1232.79 183.097 1233.63 183.14 1234.35 183.14C1237.02 183.14 1239.33 182.441 1241.27 181.045C1243.22 179.648 1244.64 177.638 1245.53 175.015L1247.05 170.762L1224.07 113.696L1215.63 112.49V101.318H1252.06V112.49L1243.68 113.76L1254.48 144.038L1255.81 147.783H1256.19L1268.95 113.633L1260.76 112.49V101.318H1294.72V112.49L1286.98 113.569L1260.76 180.22C1259.49 183.394 1257.86 186.292 1255.87 188.916C1253.93 191.582 1251.43 193.719 1248.38 195.327C1245.38 196.935 1241.67 197.739 1237.27 197.739Z" fill="#6344CC"/>
<path d="M92.0679 0.992188C97.0406 0.00303168 102.196 0.510942 106.879 2.45117C111.418 4.33092 115.317 7.47365 118.117 11.501L118.384 11.8936C121.113 15.9774 122.61 20.7563 122.701 25.6602L122.705 26.1357C122.697 32.9326 119.994 39.4489 115.188 44.2549C110.382 49.0604 103.866 51.7639 97.0688 51.7715L96.5942 51.7666C91.6905 51.6757 86.9116 50.1793 82.8276 47.4512C78.6119 44.6342 75.3255 40.6298 73.3853 35.9453C71.4452 31.2617 70.9375 26.1073 71.9263 21.1348C72.9151 16.1622 75.3568 11.594 78.9419 8.00879C82.5271 4.42359 87.0952 1.9814 92.0679 0.992188Z" fill="#6344CC" stroke="#6344CC"/>
<path d="M179.465 53.6106C183.466 52.5601 186.827 54.042 189.249 56.8049C191.699 59.5997 193.14 63.6719 193.14 67.5647C193.14 71.3201 191.457 74.0833 188.831 76.2844C186.169 78.5158 182.571 80.1368 178.854 81.5305L178.853 81.5315C178.636 81.6131 178.415 81.6837 178.191 81.7434L178.155 81.7532L178.119 81.7659L136.452 96.3313L136.431 96.3391C133.691 97.3674 131.704 98.4278 130.319 99.3713C128.967 100.293 128.11 101.159 127.744 101.836L127.721 101.878L127.715 101.892C127.016 103.137 125.486 107.451 127.445 119.729V119.73L130.147 140.732L130.151 140.76L130.156 140.787L145.386 222.335L145.389 222.355L145.394 222.373C145.527 222.96 145.638 223.569 145.733 224.192V224.193C146.246 227.684 145.226 231.106 142.878 233.658C140.534 236.207 136.803 237.953 131.788 237.953C127.477 237.953 124.46 236.48 122.293 234.056C120.228 231.746 118.87 228.501 118.001 224.63L117.834 223.847C117.832 223.838 117.831 223.827 117.828 223.813C117.822 223.777 117.812 223.724 117.799 223.655C117.773 223.515 117.735 223.308 117.685 223.038C117.584 222.499 117.436 221.707 117.245 220.7C116.864 218.687 116.312 215.812 115.63 212.363C114.265 205.463 112.376 196.261 110.282 187.056C108.19 177.857 105.888 168.631 103.694 161.697C102.6 158.235 101.519 155.305 100.491 153.225C99.9798 152.19 99.4575 151.316 98.9229 150.687C98.4553 150.136 97.8181 149.582 97.0215 149.515L96.8594 149.508C95.9859 149.508 95.2951 150.101 94.7988 150.689C94.2669 151.319 93.7492 152.193 93.2432 153.229C92.2265 155.309 91.1623 158.24 90.0859 161.701C87.9294 168.636 85.6761 177.862 83.6328 187.061C81.5882 196.266 79.7491 205.468 78.4209 212.367C77.7567 215.818 77.2201 218.693 76.8496 220.706C76.6644 221.713 76.5203 222.504 76.4229 223.043C76.3741 223.313 76.3365 223.52 76.3115 223.659C76.299 223.729 76.2895 223.782 76.2832 223.818C76.2811 223.829 76.2797 223.839 76.2783 223.847C75.4196 228.063 74.022 231.592 71.8193 234.056C69.6522 236.48 66.6356 237.953 62.3242 237.953C57.3223 237.953 53.598 236.214 51.2539 233.676C48.9064 231.134 47.8795 227.726 48.3789 224.246L48.4805 223.689L48.4824 223.678L48.4844 223.666C48.5188 223.449 48.558 223.237 48.6016 223.028L48.6045 223.016L48.6064 223.004L63.6299 140.775L63.6348 140.749L63.6377 140.723L66.3408 119.751C66.6139 118.041 67.1428 114.698 67.3584 111.154C67.5712 107.655 67.4926 103.777 66.4424 101.084C66.1014 100.2 65.571 99.2294 64.4893 98.2512C63.424 97.2879 61.8652 96.3533 59.5225 95.4553L59.4932 95.4436L59.4629 95.4348L15.7246 81.7737V81.6858L15.0771 81.4426C11.3983 80.0569 7.8537 78.438 5.23535 76.217C2.65252 74.0261 1 71.2779 1 67.5549C1.00011 63.6601 2.44242 59.5911 4.89355 56.8C7.31678 54.0408 10.678 52.5636 14.6797 53.6165H14.6826C15.9122 53.9372 17.1223 54.328 18.3076 54.7864L18.3506 54.803L18.3945 54.8147C30.6446 58.2965 69.1132 68.6066 96.8691 68.6067C126.731 68.6067 169.018 56.6787 177.686 54.136L177.693 54.134L177.701 54.1311C178.161 53.9881 178.619 53.8517 179.074 53.7239L179.1 53.7161L179.27 53.6633L179.466 53.6116L179.465 53.6106Z" fill="#6344CC" stroke="#6344CC" stroke-width="2"/>
</svg>
