<svg width="564" height="564" viewBox="0 0 564 564" fill="none" xmlns="http://www.w3.org/2000/svg">
<path fill-rule="evenodd" clip-rule="evenodd" d="M564 282.05C564 437.533 437.433 564 281.95 564C126.467 564 0 437.533 0 282.05C0 126.567 126.467 0 281.95 0C437.433 0 564 126.567 564 282.05ZM450.54 282.05C450.54 189.101 374.899 113.46 281.95 113.46C189.001 113.46 113.36 189.101 113.36 282.05C113.36 374.999 189.001 450.64 281.95 450.64C374.899 450.64 450.54 374.999 450.54 282.05Z" fill="url(#paint0_linear_262_334)"/>
<path fill-rule="evenodd" clip-rule="evenodd" d="M548 282.05C548 428.157 430.278 547 285.451 547C140.722 547 23 428.157 23 282.05C23 135.943 140.722 17 285.451 17C430.278 17 548 135.943 548 282.05ZM468.464 282.05C468.464 180.184 386.355 97.2939 285.451 97.2939C184.546 97.2939 102.438 180.184 102.438 282.05C102.438 383.915 184.546 466.806 285.451 466.806C386.355 466.806 468.464 383.915 468.464 282.05Z" fill="url(#paint1_linear_262_334)"/>
<path d="M519 282.05C519 413.433 414.448 520 285.451 520C156.552 520 52 413.433 52 282.05C52 150.567 156.552 44 285.451 44C414.448 44 519 150.567 519 282.05Z" fill="url(#paint2_radial_262_334)"/>
<path d="M282.929 176.813C274.839 176.813 266.93 174.413 260.203 169.919C253.476 165.424 248.233 159.035 245.137 151.56C242.041 144.086 241.231 135.861 242.809 127.926C244.387 119.991 248.283 112.702 254.004 106.981C259.725 101.26 267.014 97.3644 274.949 95.786C282.884 94.2076 291.109 95.0177 298.583 98.1138C306.058 101.21 312.447 106.453 316.941 113.18C321.436 119.907 323.835 127.816 323.835 135.906C323.824 146.752 319.51 157.15 311.841 164.819C304.173 172.487 293.775 176.801 282.929 176.813Z" fill="#FEFEFE"/>
<path d="M411.493 177.397L411.164 177.484L410.857 177.579C410.127 177.784 409.396 178.003 408.666 178.23C395.072 182.218 329.096 200.816 282.616 200.816C239.423 200.816 179.415 184.745 160.219 179.289C158.308 178.55 156.357 177.921 154.375 177.404C140.496 173.752 131 187.85 131 200.735C131 213.497 142.468 219.574 154.046 223.935V224.14L223.602 245.864C230.709 248.588 232.608 251.371 233.536 253.782C236.553 261.518 234.142 276.836 233.288 282.183L229.051 315.054L205.537 443.755C205.464 444.106 205.398 444.463 205.34 444.829L205.172 445.756C203.477 457.553 212.14 469 228.547 469C242.864 469 249.183 459.117 251.922 445.669C251.922 445.669 272.375 330.569 282.601 330.569C292.828 330.569 313.895 445.669 313.895 445.669C316.634 459.117 322.953 469 337.27 469C353.72 469 362.383 457.502 360.645 445.669C360.491 444.661 360.309 443.667 360.09 442.703L336.254 315.068L332.025 282.197C328.964 263.052 331.426 256.726 332.259 255.243C332.281 255.208 332.301 255.171 332.317 255.133C333.106 253.672 336.7 250.4 345.086 247.252L410.302 224.454C410.703 224.347 411.098 224.22 411.485 224.074C423.173 219.691 434.86 213.628 434.86 200.75C434.86 187.872 425.372 173.752 411.493 177.397Z" fill="#FEFEFE"/>
<defs>
<linearGradient id="paint0_linear_262_334" x1="-0.0120064" y1="0.025011" x2="563.987" y2="0.025011" gradientUnits="userSpaceOnUse">
<stop stop-color="#57585A"/>
<stop offset="0.188" stop-color="#BBBDBF"/>
<stop offset="0.461" stop-color="#FEFEFE"/>
<stop offset="0.691" stop-color="#808284"/>
<stop offset="1" stop-color="#403F40"/>
</linearGradient>
<linearGradient id="paint1_linear_262_334" x1="22.9683" y1="547.032" x2="22.9683" y2="17.013" gradientUnits="userSpaceOnUse">
<stop stop-color="#57585A"/>
<stop offset="0.188" stop-color="#BBBDBF"/>
<stop offset="0.364" stop-color="#F2F2F3"/>
<stop offset="0.691" stop-color="#808284"/>
<stop offset="1" stop-color="#403F40"/>
</linearGradient>
<radialGradient id="paint2_radial_262_334" cx="0" cy="0" r="1" gradientUnits="userSpaceOnUse" gradientTransform="translate(285.485 282.025) scale(265.036 270.143)">
<stop stop-color="#0973B7"/>
<stop offset="0.848" stop-color="#293A5B"/>
</radialGradient>
</defs>
</svg>
